<mxfile host="app.diagrams.net" agent="Mozilla/5.0 (Windows NT 10.0; Win64; x64) AppleWebKit/537.36 (KHTML, like Gecko) Chrome/138.0.0.0 Safari/537.36 Edg/138.0.0.0" version="27.2.0">
  <diagram name="Seite-1" id="8WbVluxi4DGDmVFn-d5T">
    <mxGraphModel dx="1288" dy="715" grid="1" gridSize="10" guides="1" tooltips="1" connect="1" arrows="1" fold="1" page="1" pageScale="1" pageWidth="827" pageHeight="1169" math="0" shadow="0">
      <root>
        <mxCell id="0" />
        <mxCell id="1" parent="0" />
        <mxCell id="L-LUEWt2TIF64Dg2BOmG-3" value="" style="group" vertex="1" connectable="0" parent="1">
          <mxGeometry x="240" y="150" width="550" height="590" as="geometry" />
        </mxCell>
        <mxCell id="L-LUEWt2TIF64Dg2BOmG-1" value="" style="rounded=0;whiteSpace=wrap;html=1;" vertex="1" parent="L-LUEWt2TIF64Dg2BOmG-3">
          <mxGeometry width="550" height="590" as="geometry" />
        </mxCell>
        <mxCell id="L-LUEWt2TIF64Dg2BOmG-2" value="TourPlanner" style="text;html=1;align=center;verticalAlign=middle;whiteSpace=wrap;rounded=0;" vertex="1" parent="L-LUEWt2TIF64Dg2BOmG-3">
          <mxGeometry x="10" width="60" height="30" as="geometry" />
        </mxCell>
        <mxCell id="L-LUEWt2TIF64Dg2BOmG-5" value="View Tours" style="ellipse;whiteSpace=wrap;html=1;" vertex="1" parent="L-LUEWt2TIF64Dg2BOmG-3">
          <mxGeometry x="220" y="170" width="126" height="50" as="geometry" />
        </mxCell>
        <mxCell id="L-LUEWt2TIF64Dg2BOmG-6" value="Create Tour" style="ellipse;whiteSpace=wrap;html=1;" vertex="1" parent="L-LUEWt2TIF64Dg2BOmG-3">
          <mxGeometry x="54" y="110" width="126" height="50" as="geometry" />
        </mxCell>
        <mxCell id="L-LUEWt2TIF64Dg2BOmG-7" value="Edit Tour&lt;span style=&quot;color: rgba(0, 0, 0, 0); font-family: monospace; font-size: 0px; text-align: start; text-wrap-mode: nowrap;&quot;&gt;%3CmxGraphModel%3E%3Croot%3E%3CmxCell%20id%3D%220%22%2F%3E%3CmxCell%20id%3D%221%22%20parent%3D%220%22%2F%3E%3CmxCell%20id%3D%222%22%20value%3D%22View%20Tours%22%20style%3D%22ellipse%3BwhiteSpace%3Dwrap%3Bhtml%3D1%3B%22%20vertex%3D%221%22%20parent%3D%221%22%3E%3CmxGeometry%20x%3D%22414%22%20y%3D%22200%22%20width%3D%22126%22%20height%3D%2250%22%20as%3D%22geometry%22%2F%3E%3C%2FmxCell%3E%3C%2Froot%3E%3C%2FmxGraphModel%3E&lt;/span&gt;" style="ellipse;whiteSpace=wrap;html=1;" vertex="1" parent="L-LUEWt2TIF64Dg2BOmG-3">
          <mxGeometry x="54" y="210" width="126" height="50" as="geometry" />
        </mxCell>
        <mxCell id="L-LUEWt2TIF64Dg2BOmG-8" value="Delete Tour" style="ellipse;whiteSpace=wrap;html=1;" vertex="1" parent="L-LUEWt2TIF64Dg2BOmG-3">
          <mxGeometry x="54" y="280" width="126" height="50" as="geometry" />
        </mxCell>
        <mxCell id="L-LUEWt2TIF64Dg2BOmG-31" style="edgeStyle=orthogonalEdgeStyle;rounded=0;orthogonalLoop=1;jettySize=auto;html=1;" edge="1" parent="L-LUEWt2TIF64Dg2BOmG-3" source="L-LUEWt2TIF64Dg2BOmG-10" target="L-LUEWt2TIF64Dg2BOmG-5">
          <mxGeometry relative="1" as="geometry" />
        </mxCell>
        <mxCell id="L-LUEWt2TIF64Dg2BOmG-10" value="Mark/Unmark&amp;nbsp;&lt;div&gt;Favorite&lt;/div&gt;" style="ellipse;whiteSpace=wrap;html=1;" vertex="1" parent="L-LUEWt2TIF64Dg2BOmG-3">
          <mxGeometry x="394" y="50" width="126" height="50" as="geometry" />
        </mxCell>
        <mxCell id="L-LUEWt2TIF64Dg2BOmG-11" value="Create Tour Log&lt;span style=&quot;color: rgba(0, 0, 0, 0); font-family: monospace; font-size: 0px; text-align: start; text-wrap-mode: nowrap;&quot;&gt;%3CmxGraphModel%3E%3Croot%3E%3CmxCell%20id%3D%220%22%2F%3E%3CmxCell%20id%3D%221%22%20parent%3D%220%22%2F%3E%3CmxCell%20id%3D%222%22%20value%3D%22View%20Tours%22%20style%3D%22ellipse%3BwhiteSpace%3Dwrap%3Bhtml%3D1%3B%22%20vertex%3D%221%22%20parent%3D%221%22%3E%3CmxGeometry%20x%3D%22414%22%20y%3D%22200%22%20width%3D%22126%22%20height%3D%2250%22%20as%3D%22geometry%22%2F%3E%3C%2FmxCell%3E%3C%2Froot%3E%3C%2FmxGraphModel%3E&lt;/span&gt;" style="ellipse;whiteSpace=wrap;html=1;" vertex="1" parent="L-LUEWt2TIF64Dg2BOmG-3">
          <mxGeometry x="54" y="450" width="126" height="50" as="geometry" />
        </mxCell>
        <mxCell id="L-LUEWt2TIF64Dg2BOmG-12" value="Edit Tour Log" style="ellipse;whiteSpace=wrap;html=1;" vertex="1" parent="L-LUEWt2TIF64Dg2BOmG-3">
          <mxGeometry x="54" y="510" width="126" height="50" as="geometry" />
        </mxCell>
        <mxCell id="L-LUEWt2TIF64Dg2BOmG-13" value="Delete Tour Log" style="ellipse;whiteSpace=wrap;html=1;" vertex="1" parent="L-LUEWt2TIF64Dg2BOmG-3">
          <mxGeometry x="394" y="510" width="126" height="50" as="geometry" />
        </mxCell>
        <mxCell id="L-LUEWt2TIF64Dg2BOmG-9" value="View Tour Details" style="ellipse;whiteSpace=wrap;html=1;" vertex="1" parent="L-LUEWt2TIF64Dg2BOmG-3">
          <mxGeometry x="220" y="320" width="126" height="50" as="geometry" />
        </mxCell>
        <mxCell id="L-LUEWt2TIF64Dg2BOmG-24" style="edgeStyle=orthogonalEdgeStyle;rounded=0;orthogonalLoop=1;jettySize=auto;html=1;" edge="1" parent="L-LUEWt2TIF64Dg2BOmG-3" source="L-LUEWt2TIF64Dg2BOmG-11" target="L-LUEWt2TIF64Dg2BOmG-9">
          <mxGeometry relative="1" as="geometry" />
        </mxCell>
        <mxCell id="L-LUEWt2TIF64Dg2BOmG-25" style="edgeStyle=orthogonalEdgeStyle;rounded=0;orthogonalLoop=1;jettySize=auto;html=1;" edge="1" parent="L-LUEWt2TIF64Dg2BOmG-3" source="L-LUEWt2TIF64Dg2BOmG-12" target="L-LUEWt2TIF64Dg2BOmG-9">
          <mxGeometry relative="1" as="geometry" />
        </mxCell>
        <mxCell id="L-LUEWt2TIF64Dg2BOmG-26" style="edgeStyle=orthogonalEdgeStyle;rounded=0;orthogonalLoop=1;jettySize=auto;html=1;" edge="1" parent="L-LUEWt2TIF64Dg2BOmG-3" source="L-LUEWt2TIF64Dg2BOmG-13" target="L-LUEWt2TIF64Dg2BOmG-9">
          <mxGeometry relative="1" as="geometry" />
        </mxCell>
        <mxCell id="L-LUEWt2TIF64Dg2BOmG-20" value="Generate Tour&lt;div&gt;Report&lt;/div&gt;" style="ellipse;whiteSpace=wrap;html=1;" vertex="1" parent="L-LUEWt2TIF64Dg2BOmG-3">
          <mxGeometry x="54" y="390" width="126" height="50" as="geometry" />
        </mxCell>
        <mxCell id="L-LUEWt2TIF64Dg2BOmG-27" style="edgeStyle=orthogonalEdgeStyle;rounded=0;orthogonalLoop=1;jettySize=auto;html=1;" edge="1" parent="L-LUEWt2TIF64Dg2BOmG-3" source="L-LUEWt2TIF64Dg2BOmG-20" target="L-LUEWt2TIF64Dg2BOmG-9">
          <mxGeometry relative="1" as="geometry" />
        </mxCell>
        <mxCell id="L-LUEWt2TIF64Dg2BOmG-14" value="View Map" style="ellipse;whiteSpace=wrap;html=1;" vertex="1" parent="L-LUEWt2TIF64Dg2BOmG-3">
          <mxGeometry x="394" y="390" width="126" height="50" as="geometry" />
        </mxCell>
        <mxCell id="L-LUEWt2TIF64Dg2BOmG-22" style="edgeStyle=orthogonalEdgeStyle;rounded=0;orthogonalLoop=1;jettySize=auto;html=1;" edge="1" parent="L-LUEWt2TIF64Dg2BOmG-3" source="L-LUEWt2TIF64Dg2BOmG-14" target="L-LUEWt2TIF64Dg2BOmG-9">
          <mxGeometry relative="1" as="geometry" />
        </mxCell>
        <mxCell id="L-LUEWt2TIF64Dg2BOmG-17" value="Search Tours" style="ellipse;whiteSpace=wrap;html=1;" vertex="1" parent="L-LUEWt2TIF64Dg2BOmG-3">
          <mxGeometry x="54" y="50" width="126" height="50" as="geometry" />
        </mxCell>
        <mxCell id="L-LUEWt2TIF64Dg2BOmG-30" style="edgeStyle=orthogonalEdgeStyle;rounded=0;orthogonalLoop=1;jettySize=auto;html=1;" edge="1" parent="L-LUEWt2TIF64Dg2BOmG-3" source="L-LUEWt2TIF64Dg2BOmG-17" target="L-LUEWt2TIF64Dg2BOmG-5">
          <mxGeometry relative="1" as="geometry" />
        </mxCell>
        <mxCell id="L-LUEWt2TIF64Dg2BOmG-33" value="&amp;lt;&amp;lt;includes&amp;gt;&amp;gt;" style="edgeLabel;html=1;align=center;verticalAlign=middle;resizable=0;points=[];" vertex="1" connectable="0" parent="L-LUEWt2TIF64Dg2BOmG-30">
          <mxGeometry x="0.7212" y="1" relative="1" as="geometry">
            <mxPoint as="offset" />
          </mxGeometry>
        </mxCell>
        <mxCell id="L-LUEWt2TIF64Dg2BOmG-15" value="View computed attributes" style="ellipse;whiteSpace=wrap;html=1;" vertex="1" parent="L-LUEWt2TIF64Dg2BOmG-3">
          <mxGeometry x="394" y="450" width="126" height="50" as="geometry" />
        </mxCell>
        <mxCell id="L-LUEWt2TIF64Dg2BOmG-23" style="edgeStyle=orthogonalEdgeStyle;rounded=0;orthogonalLoop=1;jettySize=auto;html=1;" edge="1" parent="L-LUEWt2TIF64Dg2BOmG-3" source="L-LUEWt2TIF64Dg2BOmG-15" target="L-LUEWt2TIF64Dg2BOmG-9">
          <mxGeometry relative="1" as="geometry" />
        </mxCell>
        <mxCell id="L-LUEWt2TIF64Dg2BOmG-32" value="&amp;lt;&amp;lt;includes&amp;gt;&amp;gt;" style="edgeLabel;html=1;align=center;verticalAlign=middle;resizable=0;points=[];" vertex="1" connectable="0" parent="L-LUEWt2TIF64Dg2BOmG-23">
          <mxGeometry x="0.7463" y="2" relative="1" as="geometry">
            <mxPoint x="2" as="offset" />
          </mxGeometry>
        </mxCell>
        <mxCell id="L-LUEWt2TIF64Dg2BOmG-19" value="Import Tours" style="ellipse;whiteSpace=wrap;html=1;" vertex="1" parent="L-LUEWt2TIF64Dg2BOmG-3">
          <mxGeometry x="394" y="110" width="126" height="50" as="geometry" />
        </mxCell>
        <mxCell id="L-LUEWt2TIF64Dg2BOmG-18" value="Export Tours" style="ellipse;whiteSpace=wrap;html=1;" vertex="1" parent="L-LUEWt2TIF64Dg2BOmG-3">
          <mxGeometry x="394" y="210" width="126" height="50" as="geometry" />
        </mxCell>
        <mxCell id="L-LUEWt2TIF64Dg2BOmG-21" value="Generate Summarize&lt;div&gt;Report&lt;/div&gt;" style="ellipse;whiteSpace=wrap;html=1;" vertex="1" parent="L-LUEWt2TIF64Dg2BOmG-3">
          <mxGeometry x="394" y="280" width="126" height="50" as="geometry" />
        </mxCell>
        <mxCell id="L-LUEWt2TIF64Dg2BOmG-38" style="edgeStyle=orthogonalEdgeStyle;rounded=0;orthogonalLoop=1;jettySize=auto;html=1;exitX=0.5;exitY=0.5;exitDx=0;exitDy=0;exitPerimeter=0;entryX=0;entryY=0.5;entryDx=0;entryDy=0;endArrow=none;endFill=0;" edge="1" parent="1" source="L-LUEWt2TIF64Dg2BOmG-4" target="L-LUEWt2TIF64Dg2BOmG-17">
          <mxGeometry relative="1" as="geometry" />
        </mxCell>
        <mxCell id="L-LUEWt2TIF64Dg2BOmG-39" style="edgeStyle=orthogonalEdgeStyle;rounded=0;orthogonalLoop=1;jettySize=auto;html=1;exitX=0.5;exitY=0.5;exitDx=0;exitDy=0;exitPerimeter=0;entryX=0;entryY=0.5;entryDx=0;entryDy=0;endArrow=none;endFill=0;" edge="1" parent="1" source="L-LUEWt2TIF64Dg2BOmG-4" target="L-LUEWt2TIF64Dg2BOmG-6">
          <mxGeometry relative="1" as="geometry" />
        </mxCell>
        <mxCell id="L-LUEWt2TIF64Dg2BOmG-40" style="edgeStyle=orthogonalEdgeStyle;rounded=0;orthogonalLoop=1;jettySize=auto;html=1;exitX=0.5;exitY=0.5;exitDx=0;exitDy=0;exitPerimeter=0;entryX=0;entryY=0.5;entryDx=0;entryDy=0;endArrow=none;endFill=0;" edge="1" parent="1" source="L-LUEWt2TIF64Dg2BOmG-4" target="L-LUEWt2TIF64Dg2BOmG-7">
          <mxGeometry relative="1" as="geometry" />
        </mxCell>
        <mxCell id="L-LUEWt2TIF64Dg2BOmG-41" style="edgeStyle=orthogonalEdgeStyle;rounded=0;orthogonalLoop=1;jettySize=auto;html=1;exitX=0.5;exitY=0.5;exitDx=0;exitDy=0;exitPerimeter=0;entryX=0;entryY=0.5;entryDx=0;entryDy=0;endArrow=none;endFill=0;" edge="1" parent="1" source="L-LUEWt2TIF64Dg2BOmG-4" target="L-LUEWt2TIF64Dg2BOmG-8">
          <mxGeometry relative="1" as="geometry" />
        </mxCell>
        <mxCell id="L-LUEWt2TIF64Dg2BOmG-42" style="edgeStyle=orthogonalEdgeStyle;rounded=0;orthogonalLoop=1;jettySize=auto;html=1;exitX=0.5;exitY=0.5;exitDx=0;exitDy=0;exitPerimeter=0;entryX=0;entryY=0.5;entryDx=0;entryDy=0;endArrow=none;endFill=0;" edge="1" parent="1" source="L-LUEWt2TIF64Dg2BOmG-4" target="L-LUEWt2TIF64Dg2BOmG-20">
          <mxGeometry relative="1" as="geometry" />
        </mxCell>
        <mxCell id="L-LUEWt2TIF64Dg2BOmG-43" style="edgeStyle=orthogonalEdgeStyle;rounded=0;orthogonalLoop=1;jettySize=auto;html=1;exitX=0.5;exitY=0.5;exitDx=0;exitDy=0;exitPerimeter=0;entryX=0;entryY=0.5;entryDx=0;entryDy=0;endArrow=none;endFill=0;" edge="1" parent="1" source="L-LUEWt2TIF64Dg2BOmG-4" target="L-LUEWt2TIF64Dg2BOmG-12">
          <mxGeometry relative="1" as="geometry" />
        </mxCell>
        <mxCell id="L-LUEWt2TIF64Dg2BOmG-46" style="edgeStyle=orthogonalEdgeStyle;rounded=0;orthogonalLoop=1;jettySize=auto;html=1;exitX=0.5;exitY=0.5;exitDx=0;exitDy=0;exitPerimeter=0;entryX=0;entryY=0.5;entryDx=0;entryDy=0;endArrow=none;endFill=0;" edge="1" parent="1" source="L-LUEWt2TIF64Dg2BOmG-4" target="L-LUEWt2TIF64Dg2BOmG-11">
          <mxGeometry relative="1" as="geometry" />
        </mxCell>
        <mxCell id="L-LUEWt2TIF64Dg2BOmG-47" style="edgeStyle=orthogonalEdgeStyle;rounded=0;orthogonalLoop=1;jettySize=auto;html=1;exitX=0.5;exitY=0.5;exitDx=0;exitDy=0;exitPerimeter=0;entryX=1;entryY=0.5;entryDx=0;entryDy=0;endArrow=none;endFill=0;" edge="1" parent="1" source="L-LUEWt2TIF64Dg2BOmG-4" target="L-LUEWt2TIF64Dg2BOmG-18">
          <mxGeometry relative="1" as="geometry">
            <mxPoint x="850" y="420" as="targetPoint" />
            <Array as="points">
              <mxPoint x="780" y="420" />
              <mxPoint x="780" y="385" />
            </Array>
          </mxGeometry>
        </mxCell>
        <mxCell id="L-LUEWt2TIF64Dg2BOmG-48" style="edgeStyle=orthogonalEdgeStyle;rounded=0;orthogonalLoop=1;jettySize=auto;html=1;exitX=0.5;exitY=0.5;exitDx=0;exitDy=0;exitPerimeter=0;entryX=0;entryY=0.5;entryDx=0;entryDy=0;endArrow=none;endFill=0;" edge="1" parent="1" source="L-LUEWt2TIF64Dg2BOmG-4" target="L-LUEWt2TIF64Dg2BOmG-5">
          <mxGeometry relative="1" as="geometry">
            <Array as="points">
              <mxPoint x="252" y="420" />
              <mxPoint x="252" y="345" />
            </Array>
          </mxGeometry>
        </mxCell>
        <mxCell id="L-LUEWt2TIF64Dg2BOmG-49" style="edgeStyle=orthogonalEdgeStyle;rounded=0;orthogonalLoop=1;jettySize=auto;html=1;exitX=0.5;exitY=0.5;exitDx=0;exitDy=0;exitPerimeter=0;entryX=0;entryY=0.5;entryDx=0;entryDy=0;endArrow=none;endFill=0;" edge="1" parent="1" source="L-LUEWt2TIF64Dg2BOmG-4" target="L-LUEWt2TIF64Dg2BOmG-9">
          <mxGeometry relative="1" as="geometry">
            <Array as="points">
              <mxPoint x="252" y="420" />
              <mxPoint x="252" y="495" />
            </Array>
          </mxGeometry>
        </mxCell>
        <mxCell id="L-LUEWt2TIF64Dg2BOmG-50" style="edgeStyle=orthogonalEdgeStyle;rounded=0;orthogonalLoop=1;jettySize=auto;html=1;exitX=0.5;exitY=0.5;exitDx=0;exitDy=0;exitPerimeter=0;entryX=1;entryY=0.5;entryDx=0;entryDy=0;endArrow=none;endFill=0;" edge="1" parent="1" source="L-LUEWt2TIF64Dg2BOmG-4" target="L-LUEWt2TIF64Dg2BOmG-21">
          <mxGeometry relative="1" as="geometry">
            <Array as="points">
              <mxPoint x="780" y="420" />
              <mxPoint x="780" y="455" />
            </Array>
          </mxGeometry>
        </mxCell>
        <mxCell id="L-LUEWt2TIF64Dg2BOmG-51" style="edgeStyle=orthogonalEdgeStyle;rounded=0;orthogonalLoop=1;jettySize=auto;html=1;exitX=0.5;exitY=0.5;exitDx=0;exitDy=0;exitPerimeter=0;entryX=1;entryY=0.5;entryDx=0;entryDy=0;endArrow=none;endFill=0;" edge="1" parent="1" source="L-LUEWt2TIF64Dg2BOmG-4" target="L-LUEWt2TIF64Dg2BOmG-19">
          <mxGeometry relative="1" as="geometry" />
        </mxCell>
        <mxCell id="L-LUEWt2TIF64Dg2BOmG-52" style="edgeStyle=orthogonalEdgeStyle;rounded=0;orthogonalLoop=1;jettySize=auto;html=1;exitX=0.5;exitY=0.5;exitDx=0;exitDy=0;exitPerimeter=0;entryX=1;entryY=0.5;entryDx=0;entryDy=0;endArrow=none;endFill=0;" edge="1" parent="1" source="L-LUEWt2TIF64Dg2BOmG-4" target="L-LUEWt2TIF64Dg2BOmG-14">
          <mxGeometry relative="1" as="geometry" />
        </mxCell>
        <mxCell id="L-LUEWt2TIF64Dg2BOmG-53" style="edgeStyle=orthogonalEdgeStyle;rounded=0;orthogonalLoop=1;jettySize=auto;html=1;exitX=0.5;exitY=0.5;exitDx=0;exitDy=0;exitPerimeter=0;entryX=1;entryY=0.5;entryDx=0;entryDy=0;endArrow=none;endFill=0;" edge="1" parent="1" source="L-LUEWt2TIF64Dg2BOmG-4" target="L-LUEWt2TIF64Dg2BOmG-10">
          <mxGeometry relative="1" as="geometry" />
        </mxCell>
        <mxCell id="L-LUEWt2TIF64Dg2BOmG-54" style="edgeStyle=orthogonalEdgeStyle;rounded=0;orthogonalLoop=1;jettySize=auto;html=1;exitX=0.5;exitY=0.5;exitDx=0;exitDy=0;exitPerimeter=0;entryX=1;entryY=0.5;entryDx=0;entryDy=0;endArrow=none;endFill=0;" edge="1" parent="1" source="L-LUEWt2TIF64Dg2BOmG-4" target="L-LUEWt2TIF64Dg2BOmG-15">
          <mxGeometry relative="1" as="geometry" />
        </mxCell>
        <mxCell id="L-LUEWt2TIF64Dg2BOmG-55" style="edgeStyle=orthogonalEdgeStyle;rounded=0;orthogonalLoop=1;jettySize=auto;html=1;exitX=0.5;exitY=0.5;exitDx=0;exitDy=0;exitPerimeter=0;entryX=1;entryY=0.5;entryDx=0;entryDy=0;endArrow=none;endFill=0;" edge="1" parent="1" source="L-LUEWt2TIF64Dg2BOmG-4" target="L-LUEWt2TIF64Dg2BOmG-13">
          <mxGeometry relative="1" as="geometry" />
        </mxCell>
        <mxCell id="L-LUEWt2TIF64Dg2BOmG-4" value="User" style="shape=umlActor;verticalLabelPosition=bottom;verticalAlign=top;html=1;outlineConnect=0;" vertex="1" parent="1">
          <mxGeometry x="180" y="390" width="30" height="60" as="geometry" />
        </mxCell>
      </root>
    </mxGraphModel>
  </diagram>
</mxfile>
